<svg width="34" height="35" viewBox="0 0 34 35" fill="none" xmlns="http://www.w3.org/2000/svg">
<rect x="0.5" y="1" width="33" height="33" rx="16.5" stroke="#0065FF"/>
<path d="M22.5007 13.1684C23.694 13.1684 24.8385 12.7117 25.6822 11.8989C26.526 11.0861 27 9.98367 27 8.83418C27 7.68468 26.526 6.58227 25.6822 5.76945C24.8385 4.95664 23.694 4.5 22.5007 4.5H13.502C12.3094 4.5 11.1656 4.95637 10.3223 5.76871C9.47903 6.58105 9.00527 7.68282 9.00527 8.83164C9.00527 9.98047 9.47903 11.0822 10.3223 11.8946C11.1656 12.7069 12.3094 13.1633 13.502 13.1633C12.3087 13.1633 11.1643 13.6199 10.3205 14.4327C9.47668 15.2456 9.00264 16.348 9.00264 17.4975C9.00264 18.647 9.47668 19.7494 10.3205 20.5622C11.1643 21.375 12.3087 21.8316 13.502 21.8316C12.6121 21.8312 11.742 22.0848 11.0018 22.5606C10.2616 23.0366 9.68453 23.7131 9.3435 24.5048C9.00248 25.2967 8.91284 26.168 9.08594 27.0089C9.25904 27.8497 9.6871 28.6222 10.316 29.2287C10.9449 29.8353 11.7463 30.2485 12.619 30.4162C13.4917 30.5839 14.3964 30.4987 15.2188 30.1711C16.0411 29.8435 16.7442 29.2884 17.239 28.5759C17.7338 27.8635 17.9982 27.0255 17.9987 26.1684V13.1684H22.5007ZM22.5007 13.1684C21.6113 13.1684 20.7419 13.4224 20.0025 13.8984C19.263 14.3743 18.6866 15.0508 18.3463 15.8424C18.0059 16.6339 17.9169 17.5048 18.0904 18.3451C18.2639 19.1854 18.6922 19.9571 19.321 20.5629C19.9499 21.1687 20.7512 21.5813 21.6234 21.7484C22.4957 21.9155 23.3999 21.8297 24.2215 21.502C25.0433 21.1741 25.7455 20.6188 26.2396 19.9066C26.7337 19.1942 26.9975 18.3567 26.9975 17.5C26.9974 16.3512 26.5235 15.2495 25.6803 14.4372C24.8369 13.6249 23.6934 13.1685 22.5007 13.1684Z" fill="#0065FF"/>
</svg>
