<svg width="32" height="33" viewBox="0 0 32 33" fill="none" xmlns="http://www.w3.org/2000/svg">
<g clip-path="url(#clip0_42_6)">
<path d="M0 2.792C0 1.526 1.052 0.5 2.35 0.5H29.65C30.948 0.5 32 1.526 32 2.792V30.208C32 31.474 30.948 32.5 29.65 32.5H2.35C1.052 32.5 0 31.474 0 30.208V2.792ZM9.886 27.288V12.838H5.084V27.288H9.886ZM7.486 10.864C9.16 10.864 10.202 9.756 10.202 8.368C10.172 6.95 9.162 5.872 7.518 5.872C5.874 5.872 4.8 6.952 4.8 8.368C4.8 9.756 5.842 10.864 7.454 10.864H7.486ZM17.302 27.288V19.218C17.302 18.786 17.334 18.354 17.462 18.046C17.808 17.184 18.598 16.29 19.926 16.29C21.664 16.29 22.358 17.614 22.358 19.558V27.288H27.16V19C27.16 14.56 24.792 12.496 21.632 12.496C19.084 12.496 17.942 13.896 17.302 14.882V14.932H17.27L17.302 14.882V12.838H12.502C12.562 14.194 12.502 27.288 12.502 27.288H17.302Z" fill="#0065FF"/>
</g>
<defs>
<clipPath id="clip0_42_6">
<rect y="0.5" width="32" height="32" rx="16" fill="white"/>
</clipPath>
</defs>
</svg>
