<svg width="32" height="33" viewBox="0 0 32 33" fill="none" xmlns="http://www.w3.org/2000/svg">
<g clip-path="url(#clip0_42_4)">
<rect y="0.5" width="32" height="32" rx="16" fill="#0065FF"/>
<path d="M16 0.5C7.16 0.5 0 7.66 0 16.5C0 23.58 4.58 29.56 10.94 31.68C11.74 31.82 12.04 31.34 12.04 30.92C12.04 30.54 12.02 29.28 12.02 27.94C8 28.68 6.96 26.96 6.64 26.06C6.46 25.6 5.68 24.18 5 23.8C4.44 23.5 3.64 22.76 4.98 22.74C6.24 22.72 7.14 23.9 7.44 24.38C8.88 26.8 11.18 26.12 12.1 25.7C12.24 24.66 12.66 23.96 13.12 23.56C9.56 23.16 5.84 21.78 5.84 15.66C5.84 13.92 6.46 12.48 7.48 11.36C7.32 10.96 6.76 9.32 7.64 7.12C7.64 7.12 8.98 6.7 12.04 8.76C13.32 8.4 14.68 8.22 16.04 8.22C17.4 8.22 18.76 8.4 20.04 8.76C23.1 6.68 24.44 7.12 24.44 7.12C25.32 9.32 24.76 10.96 24.6 11.36C25.62 12.48 26.24 13.9 26.24 15.66C26.24 21.8 22.5 23.16 18.94 23.56C19.52 24.06 20.02 25.02 20.02 26.52C20.02 28.66 20 30.38 20 30.92C20 31.34 20.3 31.84 21.1 31.68C24.2768 30.6085 27.0373 28.5673 28.9928 25.8441C30.9483 23.1208 32 19.8526 32 16.5C32 7.66 24.84 0.5 16 0.5Z" fill="black"/>
</g>
<rect x="0.5" y="1" width="31" height="31" rx="15.5" stroke="#0065FF"/>
<defs>
<clipPath id="clip0_42_4">
<rect y="0.5" width="32" height="32" rx="16" fill="white"/>
</clipPath>
</defs>
</svg>
