<svg width="32" height="32" viewBox="0 0 32 32" fill="none" xmlns="http://www.w3.org/2000/svg">
<path d="M27.0001 1.99864C26.2044 1.99864 25.4414 2.31471 24.8788 2.87731C24.3162 3.43991 24.0001 4.20296 24.0001 4.99859C24.0001 5.79423 24.3162 6.55728 24.8788 7.11988C25.4414 7.68248 26.2044 7.99854 27.0001 7.99854C27.7957 7.99854 28.5588 7.68248 29.1214 7.11988C29.684 6.55728 30 5.79423 30 4.99859C30 4.20296 29.684 3.43991 29.1214 2.87731C28.5588 2.31471 27.7957 1.99864 27.0001 1.99864ZM22.0002 4.99859C22 3.82548 22.4124 2.68966 23.1651 1.78987C23.9178 0.890073 24.9629 0.283597 26.1176 0.0765479C27.2723 -0.130501 28.4631 0.0750604 29.4815 0.657269C30.5 1.23948 31.2813 2.16126 31.6887 3.26134C32.0962 4.36142 32.1039 5.56974 31.7104 6.67491C31.3169 7.78008 30.5474 8.71171 29.5364 9.30681C28.5255 9.90191 27.3374 10.1226 26.1802 9.93021C25.023 9.73785 23.9702 9.1447 23.2061 8.25454L9.77037 14.4944C10.0791 15.4733 10.0791 16.5235 9.77037 17.5024L23.2061 23.7423C24.0138 22.803 25.1414 22.1969 26.3705 22.0416C27.5995 21.8863 28.8425 22.1928 29.8584 22.9017C30.8743 23.6106 31.5909 24.6714 31.8693 25.8785C32.1477 27.0856 31.9681 28.3531 31.3652 29.4353C30.7623 30.5176 29.7791 31.3374 28.6062 31.7361C27.4333 32.1347 26.1541 32.0837 25.0167 31.593C23.8792 31.1022 22.9644 30.2067 22.4496 29.0799C21.9348 27.9532 21.8566 26.6754 22.2302 25.4943L8.79438 19.2544C8.12926 20.0295 7.24271 20.5823 6.25398 20.8385C5.26526 21.0947 4.22179 21.0419 3.26395 20.6873C2.30611 20.3327 1.47986 19.6932 0.89633 18.8549C0.312803 18.0167 0 17.0198 0 15.9984C0 14.977 0.312803 13.9802 0.89633 13.1419C1.47986 12.3036 2.30611 11.6641 3.26395 11.3095C4.22179 10.9549 5.26526 10.9021 6.25398 11.1583C7.24271 11.4145 8.12926 11.9673 8.79438 12.7425L22.2302 6.50257C22.0772 6.01591 21.9997 5.50871 22.0002 4.99859ZM5.00045 12.9985C4.20481 12.9985 3.44176 13.3145 2.87916 13.8771C2.31656 14.4397 2.0005 15.2028 2.0005 15.9984C2.0005 16.794 2.31656 17.5571 2.87916 18.1197C3.44176 18.6823 4.20481 18.9984 5.00045 18.9984C5.79608 18.9984 6.55913 18.6823 7.12173 18.1197C7.68433 17.5571 8.0004 16.794 8.0004 15.9984C8.0004 15.2028 7.68433 14.4397 7.12173 13.8771C6.55913 13.3145 5.79608 12.9985 5.00045 12.9985ZM27.0001 23.9983C26.2044 23.9983 25.4414 24.3143 24.8788 24.8769C24.3162 25.4395 24.0001 26.2026 24.0001 26.9982C24.0001 27.7939 24.3162 28.5569 24.8788 29.1195C25.4414 29.6821 26.2044 29.9982 27.0001 29.9982C27.7957 29.9982 28.5588 29.6821 29.1214 29.1195C29.684 28.5569 30 27.7939 30 26.9982C30 26.2026 29.684 25.4395 29.1214 24.8769C28.5588 24.3143 27.7957 23.9983 27.0001 23.9983Z" fill="#2F322F"/>
</svg>
