<svg width="212" height="59" viewBox="0 0 212 59" fill="none" xmlns="http://www.w3.org/2000/svg">
<path d="M1.57813 47C1.31146 47 1.06146 46.9 0.828125 46.7C0.628125 46.4667 0.528125 46.2167 0.528125 45.95C0.528125 45.7833 0.544792 45.6333 0.578125 45.5L12.3281 13.4C12.4281 13.0333 12.6281 12.7167 12.9281 12.45C13.2615 12.15 13.7115 12 14.2781 12H21.6781C22.2448 12 22.6781 12.15 22.9781 12.45C23.3115 12.7167 23.5281 13.0333 23.6281 13.4L35.3281 45.5C35.3948 45.6333 35.4281 45.7833 35.4281 45.95C35.4281 46.2167 35.3115 46.4667 35.0781 46.7C34.8781 46.9 34.6281 47 34.3281 47H28.1781C27.6781 47 27.2948 46.8833 27.0281 46.65C26.7948 46.3833 26.6448 46.15 26.5781 45.95L24.6281 40.85H11.2781L9.37813 45.95C9.31146 46.15 9.16146 46.3833 8.92813 46.65C8.69479 46.8833 8.29479 47 7.72813 47H1.57813ZM13.3281 33.65H22.6281L17.9281 20.45L13.3281 33.65ZM39.6191 47C39.2525 47 38.9525 46.8833 38.7191 46.65C38.4858 46.4167 38.3691 46.1167 38.3691 45.75V13.25C38.3691 12.8833 38.4858 12.5833 38.7191 12.35C38.9525 12.1167 39.2525 12 39.6191 12H46.3191C46.6858 12 46.9858 12.1167 47.2191 12.35C47.4525 12.5833 47.5691 12.8833 47.5691 13.25V45.75C47.5691 46.1167 47.4525 46.4167 47.2191 46.65C46.9858 46.8833 46.6858 47 46.3191 47H39.6191ZM59.9801 47C59.6134 47 59.3467 46.9 59.1801 46.7C59.0134 46.4667 58.9634 46.1833 59.0301 45.85L65.2801 16.45H55.6801C55.3467 16.45 55.0967 16.35 54.9301 16.15C54.7634 15.9167 54.7134 15.6333 54.7801 15.3L55.2301 13.2C55.2967 12.8333 55.4467 12.55 55.6801 12.35C55.9467 12.1167 56.2634 12 56.6301 12H80.7301C81.0967 12 81.3467 12.1167 81.4801 12.35C81.6467 12.55 81.6967 12.8333 81.6301 13.2L81.1801 15.3C81.1134 15.6333 80.9467 15.9167 80.6801 16.15C80.4467 16.35 80.1467 16.45 79.7801 16.45H70.2301L63.9801 45.85C63.9134 46.1833 63.7467 46.4667 63.4801 46.7C63.2467 46.9 62.9467 47 62.5801 47H59.9801ZM91.891 47.5C89.9243 47.5 88.141 47.2333 86.541 46.7C84.941 46.1333 83.6243 45.2833 82.591 44.15C81.5577 43.0167 80.841 41.5833 80.441 39.85C80.0743 38.1167 80.091 36.0833 80.491 33.75C80.7577 32.2833 81.041 30.8833 81.341 29.55C81.641 28.1833 81.9743 26.7667 82.341 25.3C83.441 20.6667 85.3743 17.2167 88.141 14.95C90.941 12.65 94.441 11.5 98.641 11.5C100.641 11.5 102.424 11.7833 103.991 12.35C105.591 12.9167 106.908 13.7833 107.941 14.95C109.008 16.1167 109.724 17.55 110.091 19.25C110.458 20.95 110.441 22.9667 110.041 25.3C109.774 26.7667 109.491 28.1833 109.191 29.55C108.891 30.8833 108.574 32.2833 108.241 33.75C107.108 38.45 105.141 41.9167 102.341 44.15C99.5744 46.3833 96.091 47.5 91.891 47.5ZM92.091 43.25C94.7243 43.25 97.041 42.4833 99.041 40.95C101.041 39.4167 102.458 36.9333 103.291 33.5C103.658 32 103.958 30.6667 104.191 29.5C104.458 28.3 104.724 26.9667 104.991 25.5C105.624 22.0667 105.358 19.5833 104.191 18.05C103.058 16.5167 101.141 15.75 98.441 15.75C95.7743 15.75 93.4577 16.5167 91.491 18.05C89.5243 19.5833 88.1243 22.0667 87.291 25.5C86.9243 26.9667 86.6077 28.3 86.341 29.5C86.0743 30.6667 85.8077 32 85.541 33.5C84.941 36.9333 85.191 39.4167 86.291 40.95C87.4243 42.4833 89.3577 43.25 92.091 43.25ZM112.979 47C112.646 47 112.396 46.9 112.229 46.7C112.062 46.4667 112.012 46.1833 112.079 45.85L119.029 13.2C119.096 12.8333 119.246 12.55 119.479 12.35C119.746 12.1167 120.046 12 120.379 12H131.179C133.412 12 135.379 12.3 137.079 12.9C138.779 13.4667 140.162 14.3333 141.229 15.5C142.296 16.6333 143.012 18.05 143.379 19.75C143.779 21.45 143.762 23.3833 143.329 25.55C143.029 27.05 142.762 28.3667 142.529 29.5C142.296 30.6333 141.996 31.9333 141.629 33.4C140.929 36.4667 139.929 39.0167 138.629 41.05C137.329 43.05 135.596 44.55 133.429 45.55C131.296 46.5167 128.546 47 125.179 47H112.979ZM117.629 42.75H125.229C127.529 42.75 129.429 42.4333 130.929 41.8C132.429 41.1667 133.629 40.15 134.529 38.75C135.462 37.35 136.196 35.5 136.729 33.2C136.962 32.2 137.162 31.3333 137.329 30.6C137.529 29.8333 137.696 29.0833 137.829 28.35C137.996 27.5833 138.162 26.7167 138.329 25.75C138.962 22.5167 138.696 20.1333 137.529 18.6C136.396 17.0333 134.096 16.25 130.629 16.25H123.279L117.629 42.75ZM143.052 47C142.618 47 142.335 46.8333 142.202 46.5C142.035 46.1333 142.052 45.7833 142.252 45.45L161.502 13.1C161.702 12.7667 161.935 12.5 162.202 12.3C162.502 12.1 162.868 12 163.302 12H167.102C167.535 12 167.852 12.1 168.052 12.3C168.285 12.5 168.418 12.7667 168.452 13.1L173.952 45.45C174.052 45.95 174.002 46.3333 173.802 46.6C173.602 46.8667 173.335 47 173.002 47H170.452C170.085 47 169.802 46.9167 169.602 46.75C169.402 46.55 169.268 46.2667 169.202 45.9L167.902 39.05H151.502L147.202 46.15C147.035 46.3833 146.835 46.5833 146.602 46.75C146.368 46.9167 146.085 47 145.752 47H143.052ZM153.852 34.75H167.402L164.352 17L153.852 34.75ZM188.394 47C188.061 47 187.794 46.9 187.594 46.7C187.427 46.4667 187.377 46.1833 187.444 45.85L189.944 34.05L182.244 13.65C182.111 13.25 182.161 12.8833 182.394 12.55C182.661 12.1833 183.011 12 183.444 12H185.794C186.094 12 186.327 12.0833 186.494 12.25C186.694 12.3833 186.844 12.5833 186.944 12.85L193.144 28.95L206.144 12.85C206.311 12.5833 206.511 12.3833 206.744 12.25C207.011 12.0833 207.311 12 207.644 12H210.744C211.277 12 211.561 12.1833 211.594 12.55C211.627 12.9167 211.511 13.2833 211.244 13.65L194.844 34.05L192.294 45.85C192.227 46.1833 192.077 46.4667 191.844 46.7C191.611 46.9 191.311 47 190.944 47H188.394Z" fill="white"/>
</svg>
