<svg width="107" height="19" viewBox="0 0 107 19" fill="none" xmlns="http://www.w3.org/2000/svg">
<path d="M1.03906 18C0.905729 18 0.780729 17.95 0.664063 17.85C0.564063 17.7333 0.514063 17.6083 0.514063 17.475C0.514063 17.3917 0.522396 17.3167 0.539063 17.25L6.41406 1.2C6.46406 1.01667 6.56406 0.858332 6.71406 0.724999C6.88073 0.574999 7.10573 0.499999 7.38906 0.499999H11.0891C11.3724 0.499999 11.5891 0.574999 11.7391 0.724999C11.9057 0.858332 12.0141 1.01667 12.0641 1.2L17.9141 17.25C17.9474 17.3167 17.9641 17.3917 17.9641 17.475C17.9641 17.6083 17.9057 17.7333 17.7891 17.85C17.6891 17.95 17.5641 18 17.4141 18H14.3391C14.0891 18 13.8974 17.9417 13.7641 17.825C13.6474 17.6917 13.5724 17.575 13.5391 17.475L12.5641 14.925H5.88906L4.93906 17.475C4.90573 17.575 4.83073 17.6917 4.71406 17.825C4.5974 17.9417 4.3974 18 4.11406 18H1.03906ZM6.91406 11.325H11.5641L9.21406 4.725L6.91406 11.325ZM20.0596 18C19.8762 18 19.7262 17.9417 19.6096 17.825C19.4929 17.7083 19.4346 17.5583 19.4346 17.375V1.125C19.4346 0.941666 19.4929 0.791666 19.6096 0.675C19.7262 0.558332 19.8762 0.499999 20.0596 0.499999H23.4096C23.5929 0.499999 23.7429 0.558332 23.8596 0.675C23.9762 0.791666 24.0346 0.941666 24.0346 1.125V17.375C24.0346 17.5583 23.9762 17.7083 23.8596 17.825C23.7429 17.9417 23.5929 18 23.4096 18H20.0596ZM30.24 18C30.0567 18 29.9234 17.95 29.84 17.85C29.7567 17.7333 29.7317 17.5917 29.765 17.425L32.89 2.725H28.09C27.9234 2.725 27.7984 2.675 27.715 2.575C27.6317 2.45833 27.6067 2.31667 27.64 2.15L27.865 1.1C27.8984 0.916666 27.9734 0.774999 28.09 0.675C28.2234 0.558332 28.3817 0.499999 28.565 0.499999H40.615C40.7984 0.499999 40.9234 0.558332 40.99 0.675C41.0734 0.774999 41.0984 0.916666 41.065 1.1L40.84 2.15C40.8067 2.31667 40.7234 2.45833 40.59 2.575C40.4734 2.675 40.3234 2.725 40.14 2.725H35.365L32.24 17.425C32.2067 17.5917 32.1234 17.7333 31.99 17.85C31.8734 17.95 31.7234 18 31.54 18H30.24ZM46.1955 18.25C45.2122 18.25 44.3205 18.1167 43.5205 17.85C42.7205 17.5667 42.0622 17.1417 41.5455 16.575C41.0288 16.0083 40.6705 15.2917 40.4705 14.425C40.2872 13.5583 40.2955 12.5417 40.4955 11.375C40.6288 10.6417 40.7705 9.94167 40.9205 9.275C41.0705 8.59167 41.2372 7.88333 41.4205 7.15C41.9705 4.83333 42.9372 3.10833 44.3205 1.975C45.7205 0.824999 47.4705 0.249999 49.5705 0.249999C50.5705 0.249999 51.4622 0.391666 52.2455 0.675C53.0455 0.958332 53.7038 1.39167 54.2205 1.975C54.7538 2.55833 55.1122 3.275 55.2955 4.125C55.4788 4.975 55.4705 5.98333 55.2705 7.15C55.1372 7.88333 54.9955 8.59167 54.8455 9.275C54.6955 9.94167 54.5372 10.6417 54.3705 11.375C53.8038 13.725 52.8205 15.4583 51.4205 16.575C50.0372 17.6917 48.2955 18.25 46.1955 18.25ZM46.2955 16.125C47.6122 16.125 48.7705 15.7417 49.7705 14.975C50.7705 14.2083 51.4788 12.9667 51.8955 11.25C52.0788 10.5 52.2288 9.83333 52.3455 9.25C52.4788 8.65 52.6122 7.98333 52.7455 7.25C53.0622 5.53333 52.9288 4.29167 52.3455 3.525C51.7788 2.75833 50.8205 2.375 49.4705 2.375C48.1372 2.375 46.9788 2.75833 45.9955 3.525C45.0122 4.29167 44.3122 5.53333 43.8955 7.25C43.7122 7.98333 43.5538 8.65 43.4205 9.25C43.2872 9.83333 43.1538 10.5 43.0205 11.25C42.7205 12.9667 42.8455 14.2083 43.3955 14.975C43.9622 15.7417 44.9288 16.125 46.2955 16.125ZM56.7395 18C56.5728 18 56.4478 17.95 56.3645 17.85C56.2811 17.7333 56.2561 17.5917 56.2895 17.425L59.7645 1.1C59.7978 0.916666 59.8728 0.774999 59.9895 0.675C60.1228 0.558332 60.2728 0.499999 60.4395 0.499999H65.8395C66.9561 0.499999 67.9395 0.649999 68.7895 0.949999C69.6395 1.23333 70.3311 1.66667 70.8645 2.25C71.3978 2.81667 71.7561 3.525 71.9395 4.375C72.1395 5.225 72.1311 6.19167 71.9145 7.275C71.7645 8.025 71.6311 8.68333 71.5145 9.25C71.3978 9.81667 71.2478 10.4667 71.0645 11.2C70.7145 12.7333 70.2145 14.0083 69.5645 15.025C68.9145 16.025 68.0478 16.775 66.9645 17.275C65.8978 17.7583 64.5228 18 62.8395 18H56.7395ZM59.0645 15.875H62.8645C64.0145 15.875 64.9645 15.7167 65.7145 15.4C66.4645 15.0833 67.0645 14.575 67.5145 13.875C67.9811 13.175 68.3478 12.25 68.6145 11.1C68.7311 10.6 68.8311 10.1667 68.9145 9.8C69.0145 9.41667 69.0978 9.04167 69.1645 8.675C69.2478 8.29167 69.3311 7.85833 69.4145 7.375C69.7311 5.75833 69.5978 4.56667 69.0145 3.8C68.4478 3.01667 67.2978 2.625 65.5645 2.625H61.8895L59.0645 15.875ZM71.7758 18C71.5591 18 71.4174 17.9167 71.3508 17.75C71.2674 17.5667 71.2758 17.3917 71.3758 17.225L81.0008 1.05C81.1008 0.883333 81.2174 0.75 81.3508 0.65C81.5008 0.549999 81.6841 0.499999 81.9008 0.499999H83.8008C84.0174 0.499999 84.1758 0.549999 84.2758 0.65C84.3924 0.75 84.4591 0.883333 84.4758 1.05L87.2258 17.225C87.2758 17.475 87.2508 17.6667 87.1508 17.8C87.0508 17.9333 86.9174 18 86.7508 18H85.4758C85.2924 18 85.1508 17.9583 85.0508 17.875C84.9508 17.775 84.8841 17.6333 84.8508 17.45L84.2008 14.025H76.0008L73.8508 17.575C73.7674 17.6917 73.6674 17.7917 73.5508 17.875C73.4341 17.9583 73.2924 18 73.1258 18H71.7758ZM77.1758 11.875H83.9508L82.4258 3L77.1758 11.875ZM94.4471 18C94.2804 18 94.1471 17.95 94.0471 17.85C93.9637 17.7333 93.9387 17.5917 93.9721 17.425L95.2221 11.525L91.3721 1.325C91.3054 1.125 91.3304 0.941666 91.4471 0.775C91.5804 0.591666 91.7554 0.499999 91.9721 0.499999H93.1471C93.2971 0.499999 93.4137 0.541665 93.4971 0.624999C93.5971 0.691665 93.6721 0.791666 93.7221 0.924999L96.8221 8.975L103.322 0.924999C103.405 0.791666 103.505 0.691665 103.622 0.624999C103.755 0.541665 103.905 0.499999 104.072 0.499999H105.622C105.889 0.499999 106.03 0.591666 106.047 0.775C106.064 0.958333 106.005 1.14167 105.872 1.325L97.6721 11.525L96.3971 17.425C96.3637 17.5917 96.2887 17.7333 96.1721 17.85C96.0554 17.95 95.9054 18 95.7221 18H94.4471Z" fill="white"/>
</svg>
