<svg width="40" height="22" viewBox="0 0 40 22" fill="none" xmlns="http://www.w3.org/2000/svg">
<g clip-path="url(#clip0_5_105)">
<path d="M10.9804 0.5H29.0196C34.8069 0.5 39.5 5.20017 39.5 11C39.5 16.7998 34.8069 21.5 29.0196 21.5H10.9804C5.19307 21.5 0.5 16.7998 0.5 11C0.5 5.20017 5.19307 0.5 10.9804 0.5Z" fill="white" stroke="#3C3B3A"/>
<path d="M29.0196 0.392853H10.9804C5.13267 0.392853 0.392151 5.14183 0.392151 11C0.392151 16.8582 5.13267 21.6071 10.9804 21.6071H29.0196C34.8673 21.6071 39.6078 16.8582 39.6078 11C39.6078 5.14183 34.8673 0.392853 29.0196 0.392853Z" fill="#E5E5E5" stroke="#3C3B3A"/>
<path d="M11.6275 19.6429C16.3923 19.6429 20.2549 15.7733 20.2549 11C20.2549 6.22669 16.3923 2.35715 11.6275 2.35715C6.86264 2.35715 3 6.22669 3 11C3 15.7733 6.86264 19.6429 11.6275 19.6429Z" fill="#3C3B3A"/>
</g>
<defs>
<clipPath id="clip0_5_105">
<rect width="40" height="22" fill="white"/>
</clipPath>
</defs>
</svg>
