<svg width="232" height="44" viewBox="0 0 232 44" fill="none" xmlns="http://www.w3.org/2000/svg">
<rect width="231.016" height="44" rx="15" fill="#696F5A"/>
<path d="M21.1 29.74C20.2667 29.74 19.51 29.6 18.83 29.32C18.1567 29.0333 17.58 28.64 17.1 28.14C16.6267 27.64 16.28 27.0633 16.06 26.41L17.94 25.72C18.2267 26.3467 18.6467 26.8567 19.2 27.25C19.76 27.6367 20.41 27.83 21.15 27.83C21.9433 27.83 22.5767 27.6467 23.05 27.28C23.53 26.9133 23.77 26.3767 23.77 25.67C23.77 25.1833 23.6267 24.7733 23.34 24.44C23.06 24.1067 22.6867 23.8267 22.22 23.6C21.76 23.3667 21.26 23.1533 20.72 22.96C20.2267 22.78 19.73 22.5833 19.23 22.37C18.73 22.15 18.2767 21.8867 17.87 21.58C17.4633 21.2733 17.1333 20.8967 16.88 20.45C16.6333 20.0033 16.51 19.4633 16.51 18.83C16.51 18.1833 16.6833 17.59 17.03 17.05C17.3833 16.51 17.89 16.0767 18.55 15.75C19.21 15.4233 20.0067 15.26 20.94 15.26C21.7067 15.26 22.38 15.38 22.96 15.62C23.5467 15.8533 24.03 16.1767 24.41 16.59C24.79 16.9967 25.0533 17.46 25.2 17.98L23.36 18.59C23.1867 18.19 22.8867 17.85 22.46 17.57C22.04 17.29 21.49 17.15 20.81 17.15C20.1167 17.15 19.57 17.3 19.17 17.6C18.7767 17.9 18.58 18.3133 18.58 18.84C18.58 19.2267 18.7133 19.5533 18.98 19.82C19.2467 20.08 19.5967 20.31 20.03 20.51C20.47 20.71 20.9467 20.9033 21.46 21.09C21.9733 21.2767 22.4867 21.49 23 21.73C23.5133 21.9633 23.9833 22.25 24.41 22.59C24.8433 22.93 25.19 23.35 25.45 23.85C25.71 24.3433 25.84 24.94 25.84 25.64C25.84 26.5133 25.63 27.2567 25.21 27.87C24.7967 28.4767 24.2333 28.94 23.52 29.26C22.8067 29.58 22 29.74 21.1 29.74ZM33.735 29.5V15.5H35.755V21.3H42.135V15.5H44.155V29.5H42.135V23.21H35.755V29.5H33.735ZM50.8995 29.5L55.9795 15.5H57.8795L62.9695 29.5H60.8595L59.6895 26.23H54.1995L53.0495 29.5H50.8995ZM54.8195 24.42H59.0395L57.3695 19.71C57.3229 19.5833 57.2729 19.44 57.2195 19.28C57.1662 19.1133 57.1129 18.95 57.0595 18.79C57.0062 18.63 56.9662 18.49 56.9395 18.37C56.9062 18.49 56.8629 18.63 56.8095 18.79C56.7629 18.95 56.7129 19.1133 56.6595 19.28C56.6062 19.44 56.5562 19.5833 56.5095 19.71L54.8195 24.42ZM69.7116 29.5V15.5H75.5116C76.6516 15.5 77.5482 15.6967 78.2016 16.09C78.8549 16.4833 79.3182 16.9933 79.5916 17.62C79.8716 18.2467 80.0116 18.9067 80.0116 19.6C80.0116 20.14 79.9049 20.68 79.6916 21.22C79.4782 21.76 79.1416 22.2367 78.6816 22.65C78.2282 23.0633 77.6382 23.36 76.9116 23.54L79.8316 29.5H77.5516L74.7516 23.73H71.7316V29.5H69.7116ZM71.7316 21.84H75.5516C76.1516 21.84 76.6249 21.7333 76.9716 21.52C77.3249 21.3 77.5749 21.0233 77.7216 20.69C77.8749 20.35 77.9516 19.9967 77.9516 19.63C77.9516 19.2967 77.8816 18.96 77.7416 18.62C77.6016 18.2733 77.3582 17.9833 77.0116 17.75C76.6649 17.51 76.1782 17.39 75.5516 17.39H71.7316V21.84ZM87.9733 29.5V15.5H96.6733V17.41H89.9933V21.31H94.2433V23.22H89.9933V27.57H97.1033V29.5H87.9733Z" fill="#DFDFD6"/>
<path fill-rule="evenodd" clip-rule="evenodd" d="M114 21.3128C114 26.9059 118.062 31.5569 123.375 32.5V24.3747H120.562V21.25H123.375V18.7497C123.375 15.9372 125.187 14.3753 127.75 14.3753C128.562 14.3753 129.438 14.5 130.25 14.6247V17.5H128.812C127.437 17.5 127.125 18.1872 127.125 19.0628V21.25H130.125L129.625 24.3747H127.125V32.5C132.438 31.5569 136.5 26.9069 136.5 21.3128C136.5 15.0906 131.438 10 125.25 10C119.062 10 114 15.0906 114 21.3128Z" fill="#DFDFD6"/>
<path d="M159.769 32.6605C161.74 32.7264 163.705 32.3965 165.547 31.6902C167.389 30.9839 169.07 29.9155 170.492 28.5482C171.914 27.1809 173.048 25.5424 173.826 23.7296C174.604 21.9168 175.01 19.9665 175.022 17.9938C175.925 16.8757 176.596 15.5882 176.995 14.2071C177.025 14.098 177.023 13.9826 176.988 13.8748C176.954 13.767 176.889 13.6715 176.802 13.5996C176.715 13.5278 176.608 13.4827 176.496 13.4698C176.384 13.457 176.27 13.4769 176.169 13.5271C175.696 13.7547 175.164 13.8282 174.647 13.7373C174.13 13.6464 173.655 13.3957 173.289 13.0205C172.82 12.5079 172.254 12.0945 171.623 11.8048C170.993 11.515 170.31 11.3548 169.616 11.3337C168.923 11.3126 168.232 11.4309 167.584 11.6817C166.937 11.9325 166.347 12.3107 165.849 12.7938C165.166 13.4547 164.666 14.2808 164.398 15.192C164.129 16.1032 164.101 17.0684 164.315 17.9938C159.849 18.2605 156.782 16.1405 154.329 13.2338C154.255 13.1503 154.158 13.0901 154.051 13.0606C153.944 13.031 153.83 13.0333 153.724 13.0672C153.618 13.1012 153.524 13.1653 153.454 13.2517C153.384 13.3381 153.34 13.443 153.329 13.5538C152.861 16.1464 153.198 18.8199 154.295 21.2152C155.391 23.6106 157.194 25.6131 159.462 26.9538C157.941 28.6976 155.806 29.7867 153.502 29.9938C153.378 30.0143 153.264 30.0728 153.176 30.1613C153.087 30.2497 153.029 30.3636 153.008 30.4871C152.988 30.6105 153.006 30.7373 153.061 30.8497C153.116 30.962 153.205 31.0544 153.315 31.1138C155.32 32.1156 157.527 32.6447 159.769 32.6605Z" fill="#DFDFD6"/>
<g clip-path="url(#clip0_11_51)">
<path d="M192.016 22C192.016 27.123 195.227 31.497 199.746 33.218C199.636 32.281 199.519 30.736 199.771 29.652C199.988 28.72 201.172 23.714 201.172 23.714C201.172 23.714 200.815 22.999 200.815 21.94C200.815 20.28 201.777 19.04 202.976 19.04C203.996 19.04 204.488 19.805 204.488 20.722C204.488 21.747 203.835 23.279 203.498 24.7C203.217 25.889 204.095 26.859 205.267 26.859C207.39 26.859 209.023 24.62 209.023 21.388C209.023 18.527 206.967 16.528 204.032 16.528C200.634 16.528 198.639 19.077 198.639 21.712C198.639 22.739 199.034 23.839 199.528 24.438C199.57 24.4832 199.6 24.5386 199.614 24.5986C199.629 24.6587 199.628 24.7215 199.611 24.781C199.52 25.159 199.318 25.97 199.279 26.136C199.226 26.354 199.106 26.401 198.879 26.295C197.387 25.601 196.455 23.42 196.455 21.668C196.455 17.899 199.192 14.439 204.347 14.439C208.491 14.439 211.712 17.392 211.712 21.338C211.712 25.455 209.117 28.769 205.513 28.769C204.302 28.769 203.165 28.139 202.775 27.396C202.775 27.396 202.176 29.678 202.031 30.236C201.749 31.32 200.967 32.692 200.482 33.471C201.6 33.815 202.786 34 204.016 34C210.643 34 216.016 28.627 216.016 22C216.016 15.373 210.643 10 204.016 10C197.389 10 192.016 15.373 192.016 22Z" fill="#DFDFD6"/>
</g>
<defs>
<clipPath id="clip0_11_51">
<rect width="24" height="24" fill="white" transform="translate(192.016 10)"/>
</clipPath>
</defs>
</svg>
